<?xml version="1.0" ?>
<!DOCTYPE svg  PUBLIC '-//W3C//DTD SVG 1.1//EN'  'http://www.w3.org/Graphics/SVG/1.1/DTD/svg11.dtd'>
<!-- Uploaded to: SVG Repo, www.svgrepo.com, Generator: SVG Repo Mixer Tools -->
<svg width="800px" height="800px" viewBox="0 0 32 32" enable-background="new 0 0 32 32" version="1.1" xml:space="preserve" xmlns="http://www.w3.org/2000/svg" xmlns:xlink="http://www.w3.org/1999/xlink">
<g id="Files_Folder40"/>
<g id="Files_Folder39"/>
<g id="Files_Folder38"/>
<g id="Files_Folder37"/>
<g id="Files_Folder36"/>
<g id="Files_Folder35"/>
<g id="Files_Folder34"/>
<g id="Files_Folder33"/>
<g id="Files_Folder32"/>
<g id="Files_Folder31"/>
<g id="Files_Folder30"/>
<g id="Files_Folder29"/>
<g id="Files_Folder28"/>
<g id="Files_Folder27"/>
<g id="Files_Folder26"/>
<g id="Files_Folder25"/>
<g id="Files_Folder24"/>
<g id="Files_Folder23"/>
<g id="Files_Folder22"/>
<g id="Files_Folder21"/>
<g id="Files_Folder20"/>
<g id="Files_Folder19"/>
<g id="Files_Folder18">
<g>
<path d="M27,9v21c0,0.55-0.45,1-1,1H6c-0.55,0-1-0.45-1-1V2c0-0.55,0.45-1,1-1h14c0.29,0,0.57,0.13,0.76,0.35l6,7    C26.92,8.53,27,8.76,27,9z" fill="#FFC10A"/>
</g>
<g>
<g>
<path d="M21,19H11c-0.5522,0-1-0.4478-1-1s0.4478-1,1-1h10c0.5527,0,1,0.4478,1,1S21.5527,19,21,19z" fill="#FE9803"/>
</g>
<g>
<path d="M20,25h-8c-0.5522,0-1-0.4478-1-1s0.4478-1,1-1h8c0.5527,0,1,0.4478,1,1S20.5527,25,20,25z" fill="#FE9803"/>
</g>
</g>
</g>
<g id="Files_Folder17"/>
<g id="Files_Folder16"/>
<g id="Files_Folder15"/>
<g id="Files_Folder14"/>
<g id="Files_Folder13"/>
<g id="Files_Folder12"/>
<g id="Files_Folder11"/>
<g id="Files_Folder10"/>
<g id="Files_Folder09"/>
<g id="Files_Folder08"/>
<g id="Files_Folder07"/>
<g id="Files_Folder06"/>
<g id="Files_Folder05"/>
<g id="Files_Folder04"/>
<g id="Files_Folder03"/>
<g id="Files_Folder02"/>
<g id="Files_Folder01"/>
</svg>